# This file uses meters as units for non-parametric coordinates.

mtllib CowArrow.mtl
g default
v -15.670447 7.866348 -378.449585
v -12.305185 7.866348 -378.449585
v -15.670447 8.982681 -363.793518
v -12.305185 8.982681 -363.793518
v -14.625484 17.629868 -331.880829
v -13.350148 17.629868 -331.880829
v -15.484802 33.234924 -399.577637
v -12.490830 33.234924 -399.577637
v -10.037674 14.266129 -383.779602
v -12.926245 13.008224 -339.090454
v -15.049388 13.008224 -339.090454
v -17.937958 14.266129 -383.779602
v -12.305185 14.266129 -398.994568
v -12.305185 11.060379 -393.664581
v -15.670447 14.266129 -398.994568
v -15.670447 11.060379 -393.664581
v -9.213287 22.136475 -1243.698853
v -13.987816 24.114136 -1243.698853
v -18.762344 22.136475 -1243.698853
v -20.740019 17.361938 -1243.698853
v -18.762344 12.587433 -1243.698853
v -13.987816 10.609772 -1243.698853
v -9.213287 12.587433 -1243.698853
v -7.235613 17.361938 -1243.698853
v -11.558499 22.136475 -381.068024
v -13.987816 24.114136 -381.068024
v -16.417133 22.136475 -381.068024
v -17.423386 17.361938 -381.068024
v -16.417133 12.587433 -381.068024
v -13.987816 10.609772 -381.068024
v -11.558499 12.587433 -381.068024
v -10.552245 17.361938 -381.068024
v -7.235613 17.361938 -449.807220
v -9.213287 12.587433 -449.807220
v -13.987816 10.609772 -449.807220
v -18.762344 12.587433 -449.807220
v -20.740019 17.361938 -449.807220
v -18.762344 22.136475 -449.807220
v -13.987816 24.114136 -449.807220
v -9.213287 22.136475 -449.807220
v -13.987816 17.361938 -1243.698853
vt 0.187500 0.000000
vt 0.812500 0.000000
vt 0.625000 0.250000
vt 0.375000 0.250000
vt 0.625000 0.313068
vt 0.375000 0.313068
vt 0.375000 0.500000
vt 0.625000 0.500000
vt 0.750000 0.375000
vt 0.250000 0.375000
vt 0.344034 0.000000
vt 0.688068 0.250000
vt 0.655966 0.000000
vt 0.311932 0.250000
vt 0.875000 0.250000
vt 0.125000 0.250000
vt 1.000000 1.000000
vt 0.000000 1.000000
vt 1.000000 1.000000
vt 0.000000 1.000000
vt 0.375000 0.312500
vt 0.406250 0.312500
vt 0.406250 0.658483
vt 0.375000 0.658483
vt 0.437500 0.312500
vt 0.437500 0.658483
vt 0.468750 0.312500
vt 0.468750 0.658483
vt 0.500000 0.312500
vt 0.500000 0.658483
vt 0.531250 0.312500
vt 0.531250 0.658483
vt 0.562500 0.312500
vt 0.562500 0.658483
vt 0.593750 0.312500
vt 0.593750 0.658483
vt 0.625000 0.312500
vt 0.625000 0.658483
vt 0.593750 0.688440
vt 0.562500 0.688440
vt 0.531250 0.688440
vt 0.500000 0.688440
vt 0.468750 0.688440
vt 0.437500 0.688440
vt 0.406250 0.688440
vt 0.375000 0.688440
vt 0.625000 0.688440
vt 0.000000 0.000000
vt 1.000000 0.000000
vt 0.500000 1.000000
vt 0.000000 0.000000
vt 1.000000 0.000000
vt 0.500000 1.000000
vt 0.000000 0.000000
vt 1.000000 0.000000
vt 0.500000 1.000000
vt 0.000000 0.000000
vt 1.000000 0.000000
vt 0.500000 1.000000
vt 0.000000 0.000000
vt 1.000000 0.000000
vt 0.500000 1.000000
vt 0.000000 0.000000
vt 1.000000 0.000000
vt 0.500000 1.000000
vt 0.000000 0.000000
vt 1.000000 0.000000
vt 0.500000 1.000000
vt 0.000000 0.000000
vt 1.000000 0.000000
vt 0.500000 1.000000
vn 0.000000 -0.997112 0.075949
vn 0.000000 -0.997112 0.075949
vn 0.000000 -0.997112 0.075949
vn 0.000000 -0.997112 0.075949
vn 0.000000 -0.986981 0.160836
vn 0.000000 -0.986981 0.160836
vn 0.000000 -0.973864 0.227130
vn 0.000000 -0.973864 0.227130
vn 0.000000 0.974446 0.224623
vn 0.000000 0.974446 0.224623
vn 0.000000 0.974446 0.224623
vn 0.000000 0.974446 0.224623
vn 0.969704 -0.239790 0.046627
vn 0.992720 0.107822 0.053679
vn 0.989614 0.133245 0.053945
vn 0.969704 -0.239790 0.046627
vn -0.992720 0.107822 0.053679
vn -0.969705 -0.239789 0.046627
vn -0.969705 -0.239789 0.046627
vn -0.989614 0.133245 0.053945
vn 0.988644 0.140237 0.054012
vn 0.988644 0.140237 0.054012
vn 0.000000 -0.841875 0.539673
vn 0.000000 -0.841875 0.539673
vn -0.988644 0.140237 0.054012
vn -0.988644 0.140237 0.054012
vn 0.935439 -0.337492 -0.105129
vn 0.935439 -0.337492 -0.105129
vn 0.935439 -0.337492 -0.105129
vn 0.935439 -0.337492 -0.105129
vn -0.935439 -0.337492 -0.105129
vn -0.935439 -0.337492 -0.105129
vn -0.935439 -0.337492 -0.105129
vn -0.935439 -0.337492 -0.105129
vn 0.000000 -0.978668 -0.205448
vn 0.000000 -0.978668 -0.205448
vn 0.000000 -0.978668 -0.205448
vn 0.000000 -0.978668 -0.205448
vn 0.000000 -0.856942 -0.515413
vn 0.000000 -0.856942 -0.515413
vn 0.000000 -0.856942 -0.515413
vn 0.000000 -0.856942 -0.515413
vn 0.000000 1.000000 0.000000
vn 0.000000 1.000000 0.000000
vn 0.000000 1.000000 0.000000
vn 0.000000 1.000000 0.000000
vn 0.000000 -0.639962 -0.768406
vn 0.000000 -0.639962 -0.768406
vn 0.000000 -0.639962 -0.768406
vn 0.000000 -0.639962 -0.768406
vn 0.382681 0.923880 0.000000
vn 0.382681 0.923880 0.000000
vn 0.389173 0.921165 0.000529
vn 0.389051 0.921216 0.000519
vn -0.382681 0.923880 0.000000
vn -0.382681 0.923880 0.000000
vn -0.389051 0.921216 0.000519
vn -0.389173 0.921165 0.000529
vn -0.923880 0.382683 0.000000
vn -0.923880 0.382683 0.000000
vn -0.926480 0.376331 0.003008
vn -0.926529 0.376212 0.003064
vn -0.923879 -0.382685 0.000000
vn -0.923879 -0.382685 0.000000
vn -0.926528 -0.376214 0.003064
vn -0.926480 -0.376333 0.003008
vn -0.382681 -0.923880 0.000000
vn -0.382681 -0.923880 0.000000
vn -0.389173 -0.921165 0.000529
vn -0.389051 -0.921216 0.000519
vn 0.382681 -0.923880 0.000000
vn 0.382681 -0.923880 0.000000
vn 0.389051 -0.921216 0.000519
vn 0.389173 -0.921165 0.000529
vn 0.923879 -0.382685 0.000000
vn 0.923879 -0.382685 0.000000
vn 0.926480 -0.376333 0.003008
vn 0.926528 -0.376214 0.003064
vn 0.923880 0.382683 0.000000
vn 0.923880 0.382683 0.000000
vn 0.926529 0.376212 0.003064
vn 0.926480 0.376331 0.003008
vn 0.953747 -0.298032 0.039279
vn 0.953747 -0.298032 0.039279
vn 0.481268 -0.876535 0.008210
vn 0.481268 -0.876535 0.008210
vn -0.481268 -0.876535 0.008210
vn -0.481268 -0.876535 0.008210
vn -0.953747 -0.298032 0.039279
vn -0.953747 -0.298032 0.039279
vn -0.953748 0.298031 0.039279
vn -0.953748 0.298031 0.039279
vn -0.481268 0.876535 0.008210
vn -0.481268 0.876535 0.008210
vn 0.481268 0.876535 0.008210
vn 0.481268 0.876535 0.008210
vn 0.953748 0.298031 0.039279
vn 0.953748 0.298031 0.039279
vn 0.000000 0.000000 -1.000000
vn 0.000000 0.000000 -1.000000
vn 0.000000 0.000000 -1.000000
vn 0.000000 0.000000 -1.000000
vn 0.000000 0.000000 -1.000000
vn 0.000000 0.000000 -1.000000
vn 0.000000 0.000000 -1.000000
vn 0.000000 0.000000 -1.000000
vn 0.000000 0.000000 -1.000000
vn 0.000000 0.000000 -1.000000
vn 0.000000 0.000000 -1.000000
vn 0.000000 0.000000 -1.000000
vn 0.000000 0.000000 -1.000000
vn 0.000000 0.000000 -1.000000
vn 0.000000 0.000000 -1.000000
vn -0.000030 0.000000 -1.000000
vn -0.000030 0.000000 -1.000000
vn -0.000030 0.000000 -1.000000
vn 0.000000 0.000000 -1.000000
vn 0.000000 0.000000 -1.000000
vn 0.000000 0.000000 -1.000000
vn 0.000000 0.000000 -1.000000
vn 0.000000 0.000000 -1.000000
vn 0.000000 0.000000 -1.000000
s off
g polySurface6
usemtl initialShadingGroup
f 1/1/1 2/2/2 4/3/3 3/4/4
s 1
f 3/4/5 4/3/6 10/5/7 11/6/8
s off
f 5/7/9 6/8/10 8/9/11 7/10/12
s 2
f 2/2/13 9/11/14 10/12/15 4/3/16
s 3
f 12/13/17 1/1/18 3/4/19 11/14/20
s 2
f 9/11/14 8/9/21 6/15/22 10/12/15
s 1
f 11/6/8 10/5/7 6/8/23 5/7/24
s 3
f 7/10/25 12/13/17 11/14/20 5/16/26
s off
f 9/11/27 2/2/28 14/17/29 13/18/30
f 1/1/31 12/13/32 15/19/33 16/20/34
f 14/17/35 2/2/36 1/1/37 16/20/38
f 13/18/39 14/17/40 16/20/41 15/19/42
f 9/11/43 13/18/44 15/19/45 12/13/46
f 12/13/47 7/10/48 8/9/49 9/11/50
s 4
f 17/21/51 18/22/52 39/23/53 40/24/54
s 5
f 18/22/55 19/25/56 38/26/57 39/23/58
s 6
f 19/25/59 20/27/60 37/28/61 38/26/62
s 7
f 20/27/63 21/29/64 36/30/65 37/28/66
s 8
f 21/29/67 22/31/68 35/32/69 36/30/70
s 9
f 22/31/71 23/33/72 34/34/73 35/32/74
s 10
f 23/33/75 24/35/76 33/36/77 34/34/78
s 11
f 24/35/79 17/37/80 40/38/81 33/36/82
s 10
f 34/34/78 33/36/77 32/39/83 31/40/84
s 9
f 35/32/74 34/34/73 31/40/85 30/41/86
s 8
f 36/30/70 35/32/69 30/41/87 29/42/88
s 7
f 37/28/66 36/30/65 29/42/89 28/43/90
s 6
f 38/26/62 37/28/61 28/43/91 27/44/92
s 5
f 39/23/58 38/26/57 27/44/93 26/45/94
s 4
f 40/24/54 39/23/53 26/45/95 25/46/96
s 11
f 33/36/82 40/38/81 25/47/97 32/39/98
s off
f 18/48/99 17/49/100 41/50/101
f 19/51/102 18/52/103 41/53/104
f 20/54/105 19/55/106 41/56/107
f 21/57/108 20/58/109 41/59/110
f 22/60/111 21/61/112 41/62/113
f 23/63/114 22/64/115 41/65/116
f 24/66/117 23/67/118 41/68/119
f 17/69/120 24/70/121 41/71/122
